# xmcd
#
# Track frame offsets:
#	150
#	19391
#	34339
#	42832
#	60098
#	77329
#	87562
#	109113
#	126928
#	140329
#	152042
#	166233
#
# Disc length: 2407 seconds
#
# Revision: 0
# Processed by: cddbd v1.5.2PL0 Copyright (c) Steve Scherf et al.
# Submitted via: EasyCDDAExtractor 15.3.0.1
#
DISCID=9209650c
DTITLE=The Music Of Nashville - Season 6, Volume 1
DYEAR=2018
DGENRE=Country
TTITLE0=Hayden Panettiere - Is There Anybody Out There
TTITLE1=Sam Palladio - Never Come Back Again
TTITLE2=Lennon Stella - What It's Made For
TTITLE3=Clare Bowen - Ain't No Normal
TTITLE4=Maisy Stella - Come And Find Me
TTITLE5=Hayden Panettiere - I Always Will
TTITLE6=Rhiannon Giddens, Charles Esten - Wandering Roads
TTITLE7=Rainee Blake, Chris Carmack, Jonathan Jackson, Sam Palladio - Hold On 
TTITLE7=(Not Leaving You Behind)
TTITLE8=Charles Esten - Looking For The Light
TTITLE9=Rainee Blake, Chris Carmack, Jonathan Jackson, Sam Palladio - Love Is 
TTITLE9=Loud
TTITLE10=Maisy Stella - Unravel
TTITLE11=Charles Esten - Face The Sun
EXTD=
EXTT0=
EXTT1=
EXTT2=
EXTT3=
EXTT4=
EXTT5=
EXTT6=
EXTT7=
EXTT8=
EXTT9=
EXTT10=
EXTT11=
PLAYORDER=
